<?xml version="1.0" standalone="no"?>
<svg xmlns:xlink="http://www.w3.org/1999/xlink" id="wave" style="transform:rotate(180deg); transition: 0.3s" viewBox="0 0 1440 180" version="1.1" xmlns="http://www.w3.org/2000/svg"><defs><linearGradient id="sw-gradient-0" x1="0" x2="0" y1="1" y2="0"><stop stop-color="rgba(243, 175.812, 62, 1)" offset="0%"/><stop stop-color="rgba(255, 230.548, 11, 0.26)" offset="100%"/></linearGradient></defs><path style="transform:translate(0, 0px); opacity:1" fill="url(#sw-gradient-0)" d="M0,162L10,156C20,150,40,138,60,117C80,96,100,66,120,48C140,30,160,24,180,18C200,12,220,6,240,27C260,48,280,96,300,120C320,144,340,144,360,123C380,102,400,60,420,39C440,18,460,18,480,18C500,18,520,18,540,33C560,48,580,78,600,78C620,78,640,48,660,48C680,48,700,78,720,84C740,90,760,72,780,57C800,42,820,30,840,42C860,54,880,90,900,93C920,96,940,66,960,48C980,30,1000,24,1020,24C1040,24,1060,30,1080,54C1100,78,1120,120,1140,117C1160,114,1180,66,1200,45C1220,24,1240,30,1260,45C1280,60,1300,84,1320,93C1340,102,1360,96,1380,102C1400,108,1420,126,1430,135L1440,144L1440,180L1430,180C1420,180,1400,180,1380,180C1360,180,1340,180,1320,180C1300,180,1280,180,1260,180C1240,180,1220,180,1200,180C1180,180,1160,180,1140,180C1120,180,1100,180,1080,180C1060,180,1040,180,1020,180C1000,180,980,180,960,180C940,180,920,180,900,180C880,180,860,180,840,180C820,180,800,180,780,180C760,180,740,180,720,180C700,180,680,180,660,180C640,180,620,180,600,180C580,180,560,180,540,180C520,180,500,180,480,180C460,180,440,180,420,180C400,180,380,180,360,180C340,180,320,180,300,180C280,180,260,180,240,180C220,180,200,180,180,180C160,180,140,180,120,180C100,180,80,180,60,180C40,180,20,180,10,180L0,180Z"/><defs><linearGradient id="sw-gradient-1" x1="0" x2="0" y1="1" y2="0"><stop stop-color="rgba(225.722, 176.951, 161.287, 1)" offset="0%"/><stop stop-color="rgba(255, 179, 11, 1)" offset="100%"/></linearGradient></defs><path style="transform:translate(0, 50px); opacity:0.9" fill="url(#sw-gradient-1)" d="M0,72L10,66C20,60,40,48,60,54C80,60,100,84,120,78C140,72,160,36,180,30C200,24,220,48,240,75C260,102,280,132,300,144C320,156,340,150,360,123C380,96,400,48,420,27C440,6,460,12,480,39C500,66,520,114,540,126C560,138,580,114,600,102C620,90,640,90,660,96C680,102,700,114,720,111C740,108,760,90,780,87C800,84,820,96,840,93C860,90,880,72,900,63C920,54,940,54,960,51C980,48,1000,42,1020,48C1040,54,1060,72,1080,90C1100,108,1120,126,1140,120C1160,114,1180,84,1200,84C1220,84,1240,114,1260,129C1280,144,1300,144,1320,129C1340,114,1360,84,1380,87C1400,90,1420,126,1430,144L1440,162L1440,180L1430,180C1420,180,1400,180,1380,180C1360,180,1340,180,1320,180C1300,180,1280,180,1260,180C1240,180,1220,180,1200,180C1180,180,1160,180,1140,180C1120,180,1100,180,1080,180C1060,180,1040,180,1020,180C1000,180,980,180,960,180C940,180,920,180,900,180C880,180,860,180,840,180C820,180,800,180,780,180C760,180,740,180,720,180C700,180,680,180,660,180C640,180,620,180,600,180C580,180,560,180,540,180C520,180,500,180,480,180C460,180,440,180,420,180C400,180,380,180,360,180C340,180,320,180,300,180C280,180,260,180,240,180C220,180,200,180,180,180C160,180,140,180,120,180C100,180,80,180,60,180C40,180,20,180,10,180L0,180Z"/></svg>